<?xml version="1.0" encoding="UTF-8"?>
<svg xmlns="http://www.w3.org/2000/svg" width="1180" height="720" viewBox="0 0 1180 720" role="img" aria-label="JVM 运行时内存结构">
  <defs>
    <marker id="arrow" markerWidth="10" markerHeight="10" refX="8" refY="3" orient="auto" markerUnits="strokeWidth">
      <path d="M0,0 L0,6 L8,3 z" fill="#607086" />
    </marker>
    <filter id="shadow" x="-20%" y="-20%" width="140%" height="140%">
      <feDropShadow dx="0" dy="2" stdDeviation="3" flood-color="#0f172a" flood-opacity="0.12"/>
    </filter>
  </defs>
  <rect width="100%" height="100%" rx="18" fill="#f8fafc"/>
  <text x="32" y="42" font-family="Microsoft YaHei, PingFang SC, Arial, sans-serif" font-size="22" font-weight="700" fill="#172033">JVM 运行时内存结构</text>
  
  <rect x="490" y="70" width="220" height="58" rx="12" fill="#dbeafe" stroke="#2563eb" stroke-width="2" filter="url(#shadow)"/>
  <text font-family="Microsoft YaHei, PingFang SC, Arial, sans-serif" font-size="15" font-weight="600" fill="#172033" text-anchor="middle"><tspan x="600" y="105">JVM 运行时数据区</tspan></text>

  <rect x="70" y="180" width="165" height="72" rx="12" fill="#dcfce7" stroke="#16a34a" stroke-width="2" filter="url(#shadow)"/>
  <text font-family="Microsoft YaHei, PingFang SC, Arial, sans-serif" font-size="15" font-weight="600" fill="#172033" text-anchor="middle"><tspan x="152.5" y="212">程序计数器</tspan><tspan x="152.5" y="232">线程私有</tspan></text>

  <rect x="270" y="180" width="180" height="72" rx="12" fill="#dcfce7" stroke="#16a34a" stroke-width="2" filter="url(#shadow)"/>
  <text font-family="Microsoft YaHei, PingFang SC, Arial, sans-serif" font-size="15" font-weight="600" fill="#172033" text-anchor="middle"><tspan x="360" y="212">Java 虚拟机栈</tspan><tspan x="360" y="232">线程私有</tspan></text>

  <rect x="490" y="180" width="180" height="72" rx="12" fill="#dcfce7" stroke="#16a34a" stroke-width="2" filter="url(#shadow)"/>
  <text font-family="Microsoft YaHei, PingFang SC, Arial, sans-serif" font-size="15" font-weight="600" fill="#172033" text-anchor="middle"><tspan x="580" y="212">本地方法栈</tspan><tspan x="580" y="232">线程私有</tspan></text>

  <rect x="710" y="180" width="170" height="72" rx="12" fill="#ede9fe" stroke="#7c3aed" stroke-width="2" filter="url(#shadow)"/>
  <text font-family="Microsoft YaHei, PingFang SC, Arial, sans-serif" font-size="15" font-weight="600" fill="#172033" text-anchor="middle"><tspan x="795" y="212">Java 堆</tspan><tspan x="795" y="232">线程共享</tspan></text>

  <rect x="920" y="180" width="190" height="72" rx="12" fill="#ede9fe" stroke="#7c3aed" stroke-width="2" filter="url(#shadow)"/>
  <text font-family="Microsoft YaHei, PingFang SC, Arial, sans-serif" font-size="15" font-weight="600" fill="#172033" text-anchor="middle"><tspan x="1015" y="212">方法区 / 元空间</tspan><tspan x="1015" y="232">线程共享</tspan></text>

  <rect x="450" y="600" width="250" height="60" rx="12" fill="#fef3c7" stroke="#d97706" stroke-width="2" filter="url(#shadow)"/>
  <text font-family="Microsoft YaHei, PingFang SC, Arial, sans-serif" font-size="15" font-weight="600" fill="#172033" text-anchor="middle"><tspan x="575" y="626">直接内存</tspan><tspan x="575" y="646">堆外内存，NIO/Netty 常见</tspan></text>
<line x1="600" y1="128" x2="152" y2="180" stroke="#607086" stroke-width="2.2" marker-end="url(#arrow)"/>
<line x1="600" y1="128" x2="360" y2="180" stroke="#607086" stroke-width="2.2" marker-end="url(#arrow)"/>
<line x1="600" y1="128" x2="580" y2="180" stroke="#607086" stroke-width="2.2" marker-end="url(#arrow)"/>
<line x1="600" y1="128" x2="795" y2="180" stroke="#607086" stroke-width="2.2" marker-end="url(#arrow)"/>
<line x1="600" y1="128" x2="1015" y2="180" stroke="#607086" stroke-width="2.2" marker-end="url(#arrow)"/>
<line x1="600" y1="128" x2="575" y2="600" stroke="#607086" stroke-width="2.2" marker-end="url(#arrow)"/>

  <rect x="255" y="320" width="210" height="52" rx="12" fill="#ffffff" stroke="#2563eb" stroke-width="2" filter="url(#shadow)"/>
  <text font-family="Microsoft YaHei, PingFang SC, Arial, sans-serif" font-size="15" font-weight="600" fill="#172033" text-anchor="middle"><tspan x="360" y="352">栈帧</tspan></text>
<line x1="360" y1="252" x2="360" y2="320" stroke="#607086" stroke-width="2.2" marker-end="url(#arrow)"/>

  <rect x="120" y="420" width="145" height="50" rx="12" fill="#ffffff" stroke="#2563eb" stroke-width="2" filter="url(#shadow)"/>
  <text font-family="Microsoft YaHei, PingFang SC, Arial, sans-serif" font-size="15" font-weight="600" fill="#172033" text-anchor="middle"><tspan x="192.5" y="451">局部变量表</tspan></text>

  <rect x="300" y="420" width="145" height="50" rx="12" fill="#ffffff" stroke="#2563eb" stroke-width="2" filter="url(#shadow)"/>
  <text font-family="Microsoft YaHei, PingFang SC, Arial, sans-serif" font-size="15" font-weight="600" fill="#172033" text-anchor="middle"><tspan x="372.5" y="451">操作数栈</tspan></text>

  <rect x="480" y="420" width="145" height="50" rx="12" fill="#ffffff" stroke="#2563eb" stroke-width="2" filter="url(#shadow)"/>
  <text font-family="Microsoft YaHei, PingFang SC, Arial, sans-serif" font-size="15" font-weight="600" fill="#172033" text-anchor="middle"><tspan x="552.5" y="451">动态链接</tspan></text>

  <rect x="660" y="420" width="145" height="50" rx="12" fill="#ffffff" stroke="#2563eb" stroke-width="2" filter="url(#shadow)"/>
  <text font-family="Microsoft YaHei, PingFang SC, Arial, sans-serif" font-size="15" font-weight="600" fill="#172033" text-anchor="middle"><tspan x="732.5" y="451">返回地址</tspan></text>
<line x1="360" y1="372" x2="192" y2="420" stroke="#607086" stroke-width="2.2" marker-end="url(#arrow)"/>
<line x1="360" y1="372" x2="372" y2="420" stroke="#607086" stroke-width="2.2" marker-end="url(#arrow)"/>
<line x1="360" y1="372" x2="552" y2="420" stroke="#607086" stroke-width="2.2" marker-end="url(#arrow)"/>
<line x1="360" y1="372" x2="732" y2="420" stroke="#607086" stroke-width="2.2" marker-end="url(#arrow)"/>

  <rect x="700" y="320" width="170" height="52" rx="12" fill="#ffffff" stroke="#2563eb" stroke-width="2" filter="url(#shadow)"/>
  <text font-family="Microsoft YaHei, PingFang SC, Arial, sans-serif" font-size="15" font-weight="600" fill="#172033" text-anchor="middle"><tspan x="785" y="352">新生代</tspan></text>

  <rect x="905" y="320" width="170" height="52" rx="12" fill="#ffffff" stroke="#2563eb" stroke-width="2" filter="url(#shadow)"/>
  <text font-family="Microsoft YaHei, PingFang SC, Arial, sans-serif" font-size="15" font-weight="600" fill="#172033" text-anchor="middle"><tspan x="990" y="352">老年代</tspan></text>
<line x1="795" y1="252" x2="785" y2="320" stroke="#607086" stroke-width="2.2" marker-end="url(#arrow)"/>
<line x1="795" y1="252" x2="990" y2="320" stroke="#607086" stroke-width="2.2" marker-end="url(#arrow)"/>

  <rect x="615" y="420" width="130" height="50" rx="12" fill="#ffffff" stroke="#2563eb" stroke-width="2" filter="url(#shadow)"/>
  <text font-family="Microsoft YaHei, PingFang SC, Arial, sans-serif" font-size="15" font-weight="600" fill="#172033" text-anchor="middle"><tspan x="680" y="451">Eden</tspan></text>

  <rect x="775" y="420" width="130" height="50" rx="12" fill="#ffffff" stroke="#2563eb" stroke-width="2" filter="url(#shadow)"/>
  <text font-family="Microsoft YaHei, PingFang SC, Arial, sans-serif" font-size="15" font-weight="600" fill="#172033" text-anchor="middle"><tspan x="840" y="451">Survivor 0</tspan></text>

  <rect x="935" y="420" width="130" height="50" rx="12" fill="#ffffff" stroke="#2563eb" stroke-width="2" filter="url(#shadow)"/>
  <text font-family="Microsoft YaHei, PingFang SC, Arial, sans-serif" font-size="15" font-weight="600" fill="#172033" text-anchor="middle"><tspan x="1000" y="451">Survivor 1</tspan></text>
<line x1="785" y1="372" x2="680" y2="420" stroke="#607086" stroke-width="2.2" marker-end="url(#arrow)"/>
<line x1="785" y1="372" x2="840" y2="420" stroke="#607086" stroke-width="2.2" marker-end="url(#arrow)"/>
<line x1="785" y1="372" x2="1000" y2="420" stroke="#607086" stroke-width="2.2" marker-end="url(#arrow)"/>

  <rect x="900" y="310" width="205" height="50" rx="12" fill="#ffffff" stroke="#2563eb" stroke-width="2" filter="url(#shadow)"/>
  <text font-family="Microsoft YaHei, PingFang SC, Arial, sans-serif" font-size="15" font-weight="600" fill="#172033" text-anchor="middle"><tspan x="1002.5" y="341">类元信息</tspan></text>

  <rect x="900" y="392" width="205" height="50" rx="12" fill="#ffffff" stroke="#2563eb" stroke-width="2" filter="url(#shadow)"/>
  <text font-family="Microsoft YaHei, PingFang SC, Arial, sans-serif" font-size="15" font-weight="600" fill="#172033" text-anchor="middle"><tspan x="1002.5" y="423">运行时常量池</tspan></text>

  <rect x="900" y="474" width="205" height="50" rx="12" fill="#ffffff" stroke="#2563eb" stroke-width="2" filter="url(#shadow)"/>
  <text font-family="Microsoft YaHei, PingFang SC, Arial, sans-serif" font-size="15" font-weight="600" fill="#172033" text-anchor="middle"><tspan x="1002.5" y="505">静态变量相关信息</tspan></text>
<line x1="1015" y1="252" x2="1002" y2="310" stroke="#607086" stroke-width="2.2" marker-end="url(#arrow)"/>
<line x1="1015" y1="252" x2="1002" y2="392" stroke="#607086" stroke-width="2.2" marker-end="url(#arrow)"/>
<line x1="1015" y1="252" x2="1002" y2="474" stroke="#607086" stroke-width="2.2" marker-end="url(#arrow)"/>
</svg>
