<?xml version="1.0" encoding="UTF-8"?>
<svg xmlns="http://www.w3.org/2000/svg" width="900" height="360" viewBox="0 0 900 360" role="img" aria-label="Java 对象内存布局">
  <defs>
    <marker id="arrow" markerWidth="10" markerHeight="10" refX="8" refY="3" orient="auto" markerUnits="strokeWidth">
      <path d="M0,0 L0,6 L8,3 z" fill="#607086" />
    </marker>
    <filter id="shadow" x="-20%" y="-20%" width="140%" height="140%">
      <feDropShadow dx="0" dy="2" stdDeviation="3" flood-color="#0f172a" flood-opacity="0.12"/>
    </filter>
  </defs>
  <rect width="100%" height="100%" rx="18" fill="#f8fafc"/>
  <text x="32" y="42" font-family="Microsoft YaHei, PingFang SC, Arial, sans-serif" font-size="22" font-weight="700" fill="#172033">Java 对象内存布局</text>
  
  <rect x="60" y="145" width="170" height="70" rx="12" fill="#dbeafe" stroke="#2563eb" stroke-width="2" filter="url(#shadow)"/>
  <text font-family="Microsoft YaHei, PingFang SC, Arial, sans-serif" font-size="15" font-weight="600" fill="#172033" text-anchor="middle"><tspan x="145" y="186">Java 对象</tspan></text>

  <rect x="330" y="70" width="170" height="60" rx="12" fill="#ede9fe" stroke="#7c3aed" stroke-width="2" filter="url(#shadow)"/>
  <text font-family="Microsoft YaHei, PingFang SC, Arial, sans-serif" font-size="15" font-weight="600" fill="#172033" text-anchor="middle"><tspan x="415" y="106">对象头</tspan></text>

  <rect x="330" y="160" width="170" height="60" rx="12" fill="#dcfce7" stroke="#16a34a" stroke-width="2" filter="url(#shadow)"/>
  <text font-family="Microsoft YaHei, PingFang SC, Arial, sans-serif" font-size="15" font-weight="600" fill="#172033" text-anchor="middle"><tspan x="415" y="196">实例数据</tspan></text>

  <rect x="330" y="250" width="170" height="60" rx="12" fill="#fef3c7" stroke="#d97706" stroke-width="2" filter="url(#shadow)"/>
  <text font-family="Microsoft YaHei, PingFang SC, Arial, sans-serif" font-size="15" font-weight="600" fill="#172033" text-anchor="middle"><tspan x="415" y="286">对齐填充</tspan></text>
<line x1="230" y1="180" x2="330" y2="100" stroke="#607086" stroke-width="2.2" marker-end="url(#arrow)"/>
<line x1="230" y1="180" x2="330" y2="190" stroke="#607086" stroke-width="2.2" marker-end="url(#arrow)"/>
<line x1="230" y1="180" x2="330" y2="280" stroke="#607086" stroke-width="2.2" marker-end="url(#arrow)"/>

  <rect x="630" y="35" width="210" height="54" rx="12" fill="#ffffff" stroke="#2563eb" stroke-width="2" filter="url(#shadow)"/>
  <text font-family="Microsoft YaHei, PingFang SC, Arial, sans-serif" font-size="15" font-weight="600" fill="#172033" text-anchor="middle"><tspan x="735" y="58">Mark Word</tspan><tspan x="735" y="78">hashCode / 锁状态</tspan></text>

  <rect x="630" y="120" width="210" height="54" rx="12" fill="#ffffff" stroke="#2563eb" stroke-width="2" filter="url(#shadow)"/>
  <text font-family="Microsoft YaHei, PingFang SC, Arial, sans-serif" font-size="15" font-weight="600" fill="#172033" text-anchor="middle"><tspan x="735" y="143">类型指针</tspan><tspan x="735" y="163">指向类元信息</tspan></text>

  <rect x="630" y="205" width="210" height="54" rx="12" fill="#ffffff" stroke="#2563eb" stroke-width="2" filter="url(#shadow)"/>
  <text font-family="Microsoft YaHei, PingFang SC, Arial, sans-serif" font-size="15" font-weight="600" fill="#172033" text-anchor="middle"><tspan x="735" y="228">数组长度</tspan><tspan x="735" y="248">仅数组对象存在</tspan></text>
<line x1="500" y1="100" x2="630" y2="62" stroke="#607086" stroke-width="2.2" marker-end="url(#arrow)"/>
<line x1="500" y1="100" x2="630" y2="147" stroke="#607086" stroke-width="2.2" marker-end="url(#arrow)"/>
<line x1="500" y1="100" x2="630" y2="232" stroke="#607086" stroke-width="2.2" marker-end="url(#arrow)"/>
</svg>
