<svg xmlns="http://www.w3.org/2000/svg" width="1100" height="400" viewBox="0 0 1100 400"><defs>
  <marker id="arrow" markerWidth="10" markerHeight="10" refX="9" refY="3" orient="auto" markerUnits="strokeWidth"><path d="M0,0 L0,6 L9,3 z" fill="#334155"/></marker>
  <style>
    .bg{fill:#f8fafc}.title{font:700 24px 'Microsoft YaHei',Arial,sans-serif;fill:#0f172a}.box{fill:#ffffff;stroke:#2563eb;stroke-width:1.6;rx:10}.box2{fill:#ecfeff;stroke:#0891b2;stroke-width:1.6;rx:10}.box3{fill:#fef3c7;stroke:#d97706;stroke-width:1.6;rx:10}.box4{fill:#f1f5f9;stroke:#64748b;stroke-width:1.6;rx:10}.txt{font:14px 'Microsoft YaHei',Arial,sans-serif;fill:#0f172a}.small{font:12px 'Microsoft YaHei',Arial,sans-serif;fill:#475569}.line{stroke:#334155;stroke-width:1.5;fill:none;marker-end:url(#arrow)}.dash{stroke:#64748b;stroke-width:1.4;fill:none;stroke-dasharray:5 4;marker-end:url(#arrow)}
  </style>
</defs>
<rect class="bg" width="1100" height="400"/><text class="title" x="40" y="48">数据权限链路</text>
<rect class="box" x="45" y="160" width="160" height="58"/><text class="txt" x="70" y="194">@PermissionData</text>
<rect class="box" x="245" y="160" width="170" height="58"/><text class="txt" x="275" y="194">权限 AOP 拦截</text>
<rect class="box2" x="455" y="160" width="170" height="58"/><text class="txt" x="480" y="194">查询数据规则</text>
<rect class="box2" x="665" y="160" width="170" height="58"/><text class="txt" x="682" y="194">写入 request 上下文</text>
<rect class="box" x="875" y="160" width="180" height="58"/><text class="txt" x="900" y="194">QueryWrapper 拼接</text>
<line class="line" x1="205" y1="189" x2="245" y2="189"/><line class="line" x1="415" y1="189" x2="455" y2="189"/><line class="line" x1="625" y1="189" x2="665" y2="189"/><line class="line" x1="835" y1="189" x2="875" y2="189"/>
<text class="small" x="80" y="285">核心：业务接口不手写数据范围，由平台层根据用户、菜单、接口规则统一追加查询条件。</text>
</svg>