<svg xmlns="http://www.w3.org/2000/svg" width="1100" height="390" viewBox="0 0 1100 390"><defs>
  <marker id="arrow" markerWidth="10" markerHeight="10" refX="9" refY="3" orient="auto" markerUnits="strokeWidth"><path d="M0,0 L0,6 L9,3 z" fill="#334155"/></marker>
  <style>
    .bg{fill:#f8fafc}.title{font:700 24px 'Microsoft YaHei',Arial,sans-serif;fill:#0f172a}.box{fill:#ffffff;stroke:#2563eb;stroke-width:1.6;rx:10}.box2{fill:#ecfeff;stroke:#0891b2;stroke-width:1.6;rx:10}.box3{fill:#fef3c7;stroke:#d97706;stroke-width:1.6;rx:10}.box4{fill:#f1f5f9;stroke:#64748b;stroke-width:1.6;rx:10}.txt{font:14px 'Microsoft YaHei',Arial,sans-serif;fill:#0f172a}.small{font:12px 'Microsoft YaHei',Arial,sans-serif;fill:#475569}.line{stroke:#334155;stroke-width:1.5;fill:none;marker-end:url(#arrow)}.dash{stroke:#64748b;stroke-width:1.4;fill:none;stroke-dasharray:5 4;marker-end:url(#arrow)}
  </style>
</defs>
<rect class="bg" width="1100" height="390"/><text class="title" x="40" y="48">知识库文档入库流程</text>
<rect class="box" x="50" y="150" width="130" height="58"/><text class="txt" x="84" y="184">上传文档</text>
<rect class="box" x="220" y="150" width="150" height="58"/><text class="txt" x="256" y="184">保存记录</text>
<rect class="box3" x="410" y="150" width="150" height="58"/><text class="txt" x="446" y="184">状态 building</text>
<rect class="box2" x="600" y="150" width="160" height="58"/><text class="txt" x="625" y="184">异步向量化</text>
<rect class="box4" x="800" y="150" width="130" height="58"/><text class="txt" x="834" y="184">PgVector</text>
<rect class="box3" x="970" y="150" width="100" height="58"/><text class="txt" x="992" y="184">完成</text>
<line class="line" x1="180" y1="179" x2="220" y2="179"/><line class="line" x1="370" y1="179" x2="410" y2="179"/><line class="line" x1="560" y1="179" x2="600" y2="179"/><line class="line" x1="760" y1="179" x2="800" y2="179"/><line class="line" x1="930" y1="179" x2="970" y2="179"/>
<text class="small" x="250" y="285">失败时置为 failed，并把失败原因写入 metadata；超时 building 可重新构建。</text>
</svg>