<svg xmlns="http://www.w3.org/2000/svg" width="1160" height="620" viewBox="0 0 1160 620"><defs>
  <marker id="arrow" markerWidth="10" markerHeight="10" refX="9" refY="3" orient="auto" markerUnits="strokeWidth"><path d="M0,0 L0,6 L9,3 z" fill="#334155"/></marker>
  <style>
    .bg{fill:#f8fafc}.title{font:700 24px 'Microsoft YaHei',Arial,sans-serif;fill:#0f172a}.box{fill:#ffffff;stroke:#2563eb;stroke-width:1.6;rx:10}.box2{fill:#ecfeff;stroke:#0891b2;stroke-width:1.6;rx:10}.box3{fill:#fef3c7;stroke:#d97706;stroke-width:1.6;rx:10}.box4{fill:#f1f5f9;stroke:#64748b;stroke-width:1.6;rx:10}.txt{font:14px 'Microsoft YaHei',Arial,sans-serif;fill:#0f172a}.small{font:12px 'Microsoft YaHei',Arial,sans-serif;fill:#475569}.line{stroke:#334155;stroke-width:1.5;fill:none;marker-end:url(#arrow)}.dash{stroke:#64748b;stroke-width:1.4;fill:none;stroke-dasharray:5 4;marker-end:url(#arrow)}
  </style>
</defs>
<rect class="bg" width="1160" height="620"/><text class="title" x="40" y="48">AI/RAG 知识库架构</text>
<rect class="box" x="70" y="130" width="150" height="58"/><text class="txt" x="112" y="164">上传文档</text>
<rect class="box" x="280" y="130" width="150" height="58"/><text class="txt" x="316" y="164">文档解析</text><text class="small" x="318" y="184">Tika / POI</text>
<rect class="box" x="490" y="130" width="150" height="58"/><text class="txt" x="532" y="164">分段策略</text>
<rect class="box" x="700" y="130" width="150" height="58"/><text class="txt" x="735" y="164">Embedding</text>
<rect class="box4" x="910" y="130" width="150" height="58"/><text class="txt" x="950" y="164">PgVector</text>
<line class="line" x1="220" y1="159" x2="280" y2="159"/><line class="line" x1="430" y1="159" x2="490" y2="159"/><line class="line" x1="640" y1="159" x2="700" y2="159"/><line class="line" x1="850" y1="159" x2="910" y2="159"/>
<rect class="box3" x="70" y="370" width="150" height="58"/><text class="txt" x="112" y="404">用户提问</text>
<rect class="box3" x="280" y="370" width="150" height="58"/><text class="txt" x="316" y="404">向量检索</text>
<rect class="box3" x="490" y="370" width="150" height="58"/><text class="txt" x="515" y="404">组装 Prompt</text>
<rect class="box3" x="700" y="370" width="150" height="58"/><text class="txt" x="742" y="404">大模型</text>
<rect class="box3" x="910" y="370" width="150" height="58"/><text class="txt" x="950" y="404">生成回答</text>
<line class="line" x1="220" y1="399" x2="280" y2="399"/><line class="line" x1="430" y1="399" x2="490" y2="399"/><line class="line" x1="640" y1="399" x2="700" y2="399"/><line class="line" x1="850" y1="399" x2="910" y2="399"/>
<line class="dash" x1="985" y1="188" x2="370" y2="370"/><text class="small" x="440" y="535">文档入库：解析、切分、向量化、入库；提问时：检索相关片段，增强 Prompt 后调用模型。</text>
</svg>