<svg xmlns="http://www.w3.org/2000/svg" width="1050" height="380" viewBox="0 0 1050 380"><defs>
  <marker id="arrow" markerWidth="10" markerHeight="10" refX="9" refY="3" orient="auto" markerUnits="strokeWidth"><path d="M0,0 L0,6 L9,3 z" fill="#334155"/></marker>
  <style>
    .bg{fill:#f8fafc}.title{font:700 24px 'Microsoft YaHei',Arial,sans-serif;fill:#0f172a}.box{fill:#ffffff;stroke:#2563eb;stroke-width:1.6;rx:10}.box2{fill:#ecfeff;stroke:#0891b2;stroke-width:1.6;rx:10}.box3{fill:#fef3c7;stroke:#d97706;stroke-width:1.6;rx:10}.box4{fill:#f1f5f9;stroke:#64748b;stroke-width:1.6;rx:10}.txt{font:14px 'Microsoft YaHei',Arial,sans-serif;fill:#0f172a}.small{font:12px 'Microsoft YaHei',Arial,sans-serif;fill:#475569}.line{stroke:#334155;stroke-width:1.5;fill:none;marker-end:url(#arrow)}.dash{stroke:#64748b;stroke-width:1.4;fill:none;stroke-dasharray:5 4;marker-end:url(#arrow)}
  </style>
</defs>
<rect class="bg" width="1050" height="380"/><text class="title" x="40" y="48">多租户链路</text>
<rect class="box" x="70" y="150" width="140" height="58"/><text class="txt" x="105" y="184">请求头</text><text class="small" x="96" y="204">tenant-id</text>
<rect class="box" x="270" y="150" width="140" height="58"/><text class="txt" x="302" y="184">JwtFilter</text>
<rect class="box2" x="470" y="150" width="160" height="58"/><text class="txt" x="505" y="184">TenantContext</text>
<rect class="box2" x="690" y="150" width="170" height="58"/><text class="txt" x="718" y="184">租户拦截器</text>
<rect class="box4" x="920" y="150" width="100" height="58"/><text class="txt" x="950" y="184">SQL</text>
<line class="line" x1="210" y1="179" x2="270" y2="179"/><line class="line" x1="410" y1="179" x2="470" y2="179"/><line class="line" x1="630" y1="179" x2="690" y2="179"/><line class="line" x1="860" y1="179" x2="920" y2="179"/>
<text class="small" x="200" y="285">请求结束后必须 clear ThreadLocal，避免线程复用导致串租户。</text>
</svg>